<?xml version="1.0" encoding="UTF-8"?>
<svg xmlns="http://www.w3.org/2000/svg" xmlns:xlink="http://www.w3.org/1999/xlink" version="1.1" id="Layer_1" x="0px" y="0px" viewBox="0 0 2500 800" style="enable-background:new 0 0 2500 800;" xml:space="preserve">
<style type="text/css">
	.st0{fill:#213147;}
	.st1{fill:#12AAFF;}
	.st2{fill:#9DCCED;}
	.st3{fill:#FFFFFF;}
	.st4{fill:#2D364D;}
</style>
<g>
	<path class="st0" d="M20.4,275.6v249.6c0,15.9,8.5,30.6,22.3,38.5l216.1,124.7c13.8,7.9,30.7,7.9,44.5,0l216.1-124.7   c13.8-7.9,22.3-22.7,22.3-38.5V275.6c0-15.9-8.5-30.6-22.3-38.5L303.3,112.3c-13.8-7.9-30.7-7.9-44.5,0L42.6,237   C28.9,245,20.4,259.7,20.4,275.6L20.4,275.6z"></path>
	<path class="st1" d="M328.3,448.8l-30.9,84.5c-0.9,2.3-0.9,4.9,0,7.3l53,145.4l61.3-35.4l-73.6-201.8   C336.5,444.1,330,444.1,328.3,448.8L328.3,448.8z"></path>
	<path class="st1" d="M390,306.6c-1.7-4.7-8.2-4.7-9.9,0l-30.9,84.5c-0.9,2.3-0.9,4.9,0,7.3l86.8,238.2l61.3-35.4L390,306.6   L390,306.6z"></path>
	<path class="st2" d="M281,121.6c1.6,0,3,0.4,4.4,1.2l233.9,135c2.7,1.6,4.4,4.4,4.4,7.6v270.1c0,3.1-1.7,6-4.4,7.6L285.5,678.1   c-1.3,0.8-2.9,1.2-4.4,1.2s-3-0.4-4.4-1.2L42.9,543c-2.7-1.6-4.4-4.4-4.4-7.6V265.3c0-3.1,1.7-6,4.4-7.6l233.9-135   C278,121.9,279.6,121.6,281,121.6L281,121.6L281,121.6z M281,82.1c-8.3,0-16.7,2.2-24.1,6.5l-233.9,135C8.2,232.2-1,248.1-1,265.3   v270.1c0,17.2,9.2,33.2,24.1,41.8l233.9,135c7.4,4.3,15.8,6.5,24.1,6.5c8.3,0,16.7-2.2,24.1-6.5l233.9-135   c15-8.6,24.1-24.5,24.1-41.8l0-270.1c0-17.2-9.2-33.2-24.1-41.8L305.3,88.6C297.7,84.3,289.4,82.1,281,82.1L281,82.1L281,82.1z"></path>
	<polygon class="st0" points="126.5,636.8 148,577.9 191.2,613.9 150.8,650.8 126.5,636.8  "></polygon>
	<path class="st3" d="M261.4,246h-59.2c-4.4,0-8.5,2.7-9.9,6.9L65.1,601.4l61.3,35.4l140-383.7C267.6,249.7,265.1,246,261.4,246   L261.4,246z"></path>
	<path class="st3" d="M365.1,246h-59.2c-4.4,0-8.5,2.7-9.9,6.9L150.8,650.8l61.3,35.4l157.9-433.1C371.4,249.7,368.8,246,365.1,246   L365.1,246z"></path>
	<path class="st4" d="M815.5,246.2c5.9,0,10.9,1.2,15,3.6c4,2.5,8.1,7.2,12,14.2l77.3,140.4c0.8,1.6,0.9,2.9,0.5,3.9   c-0.4,1-1.6,1.6-3.4,1.6l-29.7,0c-2.6,0-4.4-1-5.3-3l-16.5-30.1H755.6l-16.1,30.1c-1,2.1-2.9,3-5.3,3h-30.3c-2.1,0-3.3-0.5-3.6-1.6   c-0.4-1-0.3-2.3,0.5-3.9L777.4,264c3.9-7,7.7-11.7,11.5-14.2c3.8-2.5,8.1-3.6,13-3.6L815.5,246.2L815.5,246.2z M770.1,349.4h80.5   l-37.1-68.5c-0.7-1-1.4-1.7-2.6-1.7h-1.4c-1,0-2,0.5-2.6,1.7L770.1,349.4L770.1,349.4z"></path>
	<path class="st4" d="M1089.8,246.2c18,0,30.7,4,38.5,12.1c7.8,8.1,11.7,20.1,11.7,35.9v13.3c0,13.4-2.7,24-8.2,31.8   c-5.5,7.8-14.3,12.8-26.7,15l40,49.5c0.8,0.8,1,2,0.7,3.5c-0.3,1.6-1.6,2.3-3.8,2.3h-30.1c-2.1,0-3.4-0.3-4.2-0.7   c-0.8-0.5-1.6-1.3-2.3-2.3l-37-48.6h-75.5v46.5c0,3.4-1.7,5.1-5.1,5.1h-25.3c-3.6,0-5.3-1.7-5.3-5.1V253.1c0-4.7,2.3-7,7-7   L1089.8,246.2L1089.8,246.2L1089.8,246.2z M993,329.5h89.5c7.9,0,13.5-1.7,16.8-5.1s4.9-8.6,4.9-15.6V299c0-7-1.7-12.2-4.9-15.6   s-8.9-5.1-16.8-5.1l-86.5,0c-2.1,0-3,0.9-3,2.9V329.5L993,329.5z"></path>
	<path class="st4" d="M1335.5,246.2c16,0,27.5,3.3,34.2,9.6c6.8,6.4,10.2,16,10.2,28.9v11.2c0,13-4.9,22.9-15,29.7   c10.7,6.3,16.1,16.3,16.1,30.1v13.5c0,6.3-0.7,11.8-2.1,16.8c-1.4,4.9-3.6,9.2-6.9,12.8c-3.3,3.5-7.4,6.3-12.8,8.1   c-5.3,1.8-11.8,2.9-19.7,2.9l-138.8,0c-4.7,0-7-2.3-7-7V253.1c0-4.7,2.3-7,7-7L1335.5,246.2L1335.5,246.2L1335.5,246.2z    M1229.6,314.1h95.8c7.8,0,13-1.2,15.9-3.5c2.9-2.3,4.2-5.7,4.2-10.3v-7.9c0-4.8-1.3-8.3-4-10.7c-2.7-2.2-7.2-3.4-13.2-3.4h-95.6   c-2.1,0-3,1-3,3v32.8H1229.6L1229.6,314.1z M1229.6,339.5v34.8c0,2.1,1,3,3,3h95.8c6.2,0,10.7-1.2,13.3-3.4c2.6-2.2,4-5.9,4-10.8   v-8.9c0-4.8-1.4-8.5-4.3-10.9c-2.9-2.5-8.2-3.8-16-3.8L1229.6,339.5L1229.6,339.5L1229.6,339.5z"></path>
	<path class="st4" d="M1468.1,246.2c3.4,0,5.1,1.7,5.1,5.1v153.3c0,3.4-1.7,5.1-5.1,5.1l-25.3,0c-3.6,0-5.3-1.7-5.3-5.1V251.2   c0-3.4,1.8-5.1,5.3-5.1L1468.1,246.2L1468.1,246.2z"></path>
	<path class="st4" d="M1712.9,246.2c3.6,0,5.3,1.7,5.3,5.1v22.9c0,3.6-1.8,5.3-5.3,5.3h-73.3v125c0,3.4-1.7,5.1-5.1,5.1l-25.5,0   c-3.4,0-5.1-1.7-5.1-5.1v-125l-73.3,0c-3.6,0-5.3-1.8-5.3-5.3v-22.9c0-3.4,1.8-5.1,5.3-5.1H1712.9L1712.9,246.2z"></path>
	<path class="st4" d="M1897.7,246.2c18,0,30.7,4,38.5,12.1c7.8,8.1,11.7,20.1,11.7,35.9v13.3c0,13.4-2.7,24-8.2,31.8   c-5.5,7.8-14.3,12.8-26.7,15l40,49.5c0.8,0.8,1,2,0.7,3.5c-0.3,1.6-1.6,2.3-3.8,2.3h-30.1c-2.1,0-3.4-0.3-4.2-0.7   c-0.8-0.5-1.6-1.3-2.3-2.3l-37-48.6h-75.5v46.5c0,3.4-1.7,5.1-5.1,5.1h-25.3c-3.6,0-5.3-1.7-5.3-5.1V253.1c0-4.7,2.3-7,7-7   L1897.7,246.2L1897.7,246.2L1897.7,246.2z M1801.1,329.5h89.5c7.9,0,13.5-1.7,16.8-5.1c3.3-3.4,4.9-8.6,4.9-15.6V299   c0-7-1.7-12.2-4.9-15.6c-3.3-3.4-8.9-5.1-16.8-5.1l-86.5,0c-2.1,0-3,0.9-3,2.9V329.5L1801.1,329.5L1801.1,329.5z"></path>
	<path class="st4" d="M2029.1,246.2c3.4,0,5.1,1.7,5.1,5.1v93.2c0,6.3,0.5,11.5,1.6,15.5c1,4.2,2.7,7.4,5.1,9.8   c2.3,2.5,5.5,4.2,9.5,5.1c4,1,9,1.6,15.1,1.6l64.7,0c6.1,0,11.1-0.5,15.1-1.6c4-1,7.2-2.7,9.5-5.1c2.3-2.5,4-5.7,4.9-9.8   c0.9-4.2,1.4-9.2,1.4-15.5v-93.2c0-3.4,1.7-5.1,5.1-5.1l25.5,0c3.4,0,5.1,1.7,5.1,5.1V348c0,11.2-1.2,20.7-3.5,28.6   c-2.3,7.8-6.1,14.2-11.3,19.1c-5.2,4.9-12,8.5-20.3,10.7c-8.3,2.2-18.4,3.3-30.2,3.3h-67.3c-11.8,0-21.9-1-30.1-3.3   c-8.2-2.2-15-5.7-20.2-10.7c-5.2-4.9-9-11.3-11.5-19.1c-2.5-7.8-3.6-17.4-3.6-28.6v-96.7c0-3.4,1.8-5.1,5.3-5.1H2029.1   L2029.1,246.2z"></path>
	<path class="st4" d="M2297.2,246.2c3.4,0,6.4,0.3,8.9,0.7c2.5,0.5,4.7,1.3,6.5,2.7c1.8,1.3,3.5,3.1,5.1,5.3c1.4,2.2,3,5.2,4.6,9   l48.6,112.1c0.7,1.4,1.7,2.1,3.3,2.1h2.9c1.6,0,2.6-0.7,3.3-2.1l48.6-112.1c1.6-3.8,3.1-6.8,4.6-9c1.4-2.2,3.1-4,5.1-5.3   c1.8-1.3,4-2.2,6.4-2.7c2.5-0.5,5.3-0.7,8.7-0.7h25c8.1,0,13.5,1.8,16.4,5.5c2.9,3.6,4.2,9.9,4.2,18.8v134.1c0,3.4-1.8,5.1-5.3,5.1   l-23.8,0c-3.4,0-5.1-1.7-5.1-5.1l0-121.9c0-1.6-0.7-2.3-1.8-2.3h-2.1c-1.6,0-2.6,0.7-3,1.8l-47.4,104.7c-1.8,4.2-3.8,7.8-5.7,10.7   c-2,2.9-4,5.2-6.2,7.2c-2.2,1.8-4.8,3.3-7.7,4c-2.9,0.8-6.2,1.2-10.2,1.2h-11.2c-3.9,0-7.3-0.4-10.2-1.2c-2.9-0.8-5.5-2.1-7.7-4   c-2.2-1.8-4.4-4.3-6.3-7.2c-2-2.9-3.9-6.4-5.7-10.7l-47.1-104.7c-0.5-1.3-1.4-1.8-3-1.8l-2.1,0c-1.3,0-1.8,0.8-1.8,2.3v122   c0,3.4-1.7,5.1-5.1,5.1h-23.8c-3.6,0-5.3-1.7-5.3-5.1V270.5c0-8.9,1.4-15.1,4.2-18.8c2.9-3.6,8.3-5.5,16.5-5.5l25.1,0V246.2   L2297.2,246.2z"></path>
	<path class="st1" d="M799.1,458c2.1,0,3.1,1,3.1,3v13.2c0,2.1-1,3-3.1,3l-59.9,0c-3.6,0-6.5,0.3-8.9,0.9c-2.3,0.7-4.2,1.6-5.6,3   c-1.4,1.4-2.3,3.4-3,5.9c-0.7,2.5-0.9,5.5-0.9,9v2.7l77.6,0c2.1,0,3,1,3,3v10.9c0,2.1-1,3-3,3h-77.6v35.9c0,2.1-1,3-3,3h-15   c-2.1,0-3.1-1-3.1-3v-57.2c0-6.6,0.7-12.2,2.1-16.8c1.4-4.6,3.6-8.3,6.8-11.2c3.1-2.9,7-5.1,12-6.4c4.8-1.3,10.8-2,17.8-2   L799.1,458L799.1,458z"></path>
	<path class="st1" d="M910.1,458c7,0,13,0.7,17.8,2c4.9,1.3,9,3.5,12,6.4c3.1,2.9,5.3,6.6,6.6,11.2c1.4,4.6,2.1,10.2,2.1,16.8V518   c0,6.6-0.7,12.2-2.1,16.9c-1.4,4.7-3.6,8.5-6.6,11.3c-3.1,2.9-7,4.9-12,6.3c-4.9,1.3-10.9,2-17.8,2l-42.7,0c-7,0-12.9-0.7-17.8-2   c-4.8-1.3-8.9-3.4-12-6.3c-3.1-2.9-5.3-6.6-6.8-11.3c-1.4-4.7-2.1-10.3-2.1-16.9v-23.7c0-6.6,0.7-12.2,2.1-16.8   c1.4-4.6,3.6-8.3,6.8-11.2c3.1-2.9,7-5.1,12-6.4c4.8-1.3,10.8-2,17.8-2L910.1,458L910.1,458z M849.9,516.6c0,3.6,0.3,6.6,0.9,9   c0.7,2.5,1.6,4.4,3,5.9c1.4,1.4,3.3,2.5,5.6,3c2.3,0.7,5.3,0.9,8.9,0.9l41,0c3.6,0,6.5-0.3,8.9-0.9c2.3-0.7,4.2-1.6,5.6-3   c1.4-1.4,2.3-3.4,3-5.9c0.7-2.5,0.9-5.5,0.9-9v-20.7c0-3.6-0.3-6.6-0.9-9c-0.7-2.5-1.6-4.4-3-5.9s-3.3-2.5-5.6-3   c-2.3-0.7-5.3-0.9-8.9-0.9l-41,0c-3.6,0-6.5,0.3-8.9,0.9c-2.3,0.7-4.2,1.6-5.6,3c-1.4,1.4-2.3,3.4-3,5.9c-0.7,2.5-0.9,5.5-0.9,9   L849.9,516.6L849.9,516.6z"></path>
	<path class="st1" d="M997.4,458c2.1,0,3,1,3,3v55.1c0,3.6,0.3,6.8,0.9,9.2c0.7,2.5,1.6,4.4,3,5.9c1.4,1.4,3.3,2.5,5.6,3   c2.3,0.7,5.3,0.9,8.9,0.9l38.3,0c3.6,0,6.5-0.3,8.9-0.9c2.3-0.7,4.2-1.6,5.6-3c1.4-1.4,2.3-3.4,2.9-5.9c0.5-2.5,0.8-5.5,0.8-9.2   l0-55.1c0-2.1,1-3,3-3l15.1,0c2.1,0,3,1,3,3v57.2c0,6.6-0.7,12.2-2.1,16.9c-1.4,4.7-3.6,8.5-6.6,11.3c-3,2.9-7,4.9-12,6.3   c-4.9,1.3-10.9,2-17.8,2l-39.7,0c-7,0-12.9-0.7-17.8-2c-4.8-1.3-8.9-3.4-12-6.3c-3.1-2.9-5.3-6.6-6.8-11.3   c-1.4-4.7-2.1-10.3-2.1-16.9V461c0-2.1,1-3,3.1-3L997.4,458L997.4,458z"></path>
	<path class="st1" d="M1152.9,458c2.2,0,4,0.1,5.5,0.3c1.4,0.1,2.7,0.5,3.9,1.2c1,0.7,2.2,1.4,3.1,2.5c1,1,2.2,2.5,3.5,4.2   l51.4,67.4c0.4,0.7,0.9,0.9,1.8,0.9l1.3,0c0.8,0,1-0.5,1-1.4v-72c0-2.1,1-3,3-3l14.5,0c2.1,0,3,1,3,3v79.3c0,5.6-1,9.4-3,11.5   c-2.1,2-5.2,3-9.4,3l-11.8,0c-2.1,0-3.9-0.1-5.3-0.3c-1.4-0.1-2.7-0.5-3.8-1c-1-0.5-2.2-1.3-3.3-2.5c-1-1-2.2-2.5-3.6-4.3   l-51.6-67.3c-0.5-0.7-1.2-0.9-1.8-0.9l-1.3,0c-0.8,0-1,0.5-1,1.4V552c0,2.1-1,3-3,3l-14.5,0c-2.1,0-3.1-1-3.1-3v-79.3   c0-5.6,1-9.4,3-11.5c2.1-2,5.2-3,9.4-3h12.1V458L1152.9,458z"></path>
	<path class="st1" d="M1346,458c7.4,0,13.8,0.8,19.1,2.2c5.3,1.6,9.8,3.9,13.2,7c3.4,3.1,5.9,7.2,7.6,12.1   c1.6,4.9,2.5,10.8,2.5,17.4l0,18.9c0,6.8-0.8,12.5-2.5,17.4c-1.6,4.9-4.2,9-7.6,12.1c-3.4,3.1-7.8,5.5-13.2,7   c-5.3,1.6-11.7,2.3-19.1,2.3h-64.6c-2.7,0-4.2-1.4-4.2-4.2V462c0-2.7,1.4-4.2,4.2-4.2h64.6V458L1346,458z M1298.3,533.7   c0,1.2,0.7,1.8,1.8,1.8h45.3c4,0,7.4-0.4,10.2-1c2.7-0.8,4.9-2,6.6-3.6s2.9-3.9,3.6-6.6c0.8-2.7,1-6.1,1-10.2v-15.2   c0-4-0.4-7.4-1-10.2c-0.8-2.7-2-4.9-3.6-6.6c-1.7-1.7-3.9-2.9-6.6-3.6c-2.7-0.8-6.1-1-10.2-1h-45.3c-1.2,0-1.8,0.7-1.8,2   L1298.3,533.7L1298.3,533.7z"></path>
	<path class="st1" d="M1475,458c3.5,0,6.4,0.7,8.9,2.1c2.3,1.4,4.7,4.2,7,8.3l45.7,82.9c0.5,0.9,0.5,1.7,0.4,2.2   c-0.3,0.7-0.9,0.9-2,0.9l-17.6,0c-1.6,0-2.6-0.7-3.1-1.8l-9.8-17.8l-64.8,0l-9.5,17.8c-0.7,1.2-1.7,1.8-3.1,1.8l-18,0   c-1.2,0-2-0.3-2.1-0.9c-0.3-0.7-0.1-1.3,0.4-2.2l45.3-82.9c2.3-4.2,4.6-6.9,6.8-8.3c2.2-1.4,4.8-2.1,7.7-2.1L1475,458L1475,458z    M1448.3,518.9h47.5l-22-40.5c-0.4-0.7-0.9-0.9-1.6-0.9l-0.8,0c-0.7,0-1.2,0.3-1.6,0.9L1448.3,518.9L1448.3,518.9z"></path>
	<path class="st1" d="M1649.4,458c2.1,0,3.1,1,3.1,3v13.5c0,2.1-1,3.1-3.1,3.1l-43.4,0v73.8c0,2.1-1,3-3,3h-15.1c-2.1,0-3-1-3-3   v-73.8h-43.4c-2.1,0-3.1-1-3.1-3.1V461c0-2.1,1-3,3.1-3L1649.4,458L1649.4,458z"></path>
	<path class="st1" d="M1696.8,458c2.1,0,3,1,3,3v90.6c0,2.1-1,3-3,3l-15,0c-2.1,0-3.1-1-3.1-3V461c0-2.1,1-3,3.1-3L1696.8,458   L1696.8,458z"></path>
	<path class="st1" d="M1812.2,458c7,0,13,0.7,17.8,2c4.9,1.3,9,3.5,12,6.4c3.1,2.9,5.3,6.6,6.6,11.2c1.4,4.6,2.1,10.2,2.1,16.8V518   c0,6.6-0.7,12.2-2.1,16.9c-1.4,4.7-3.6,8.5-6.6,11.3c-3.1,2.9-7,4.9-12,6.3c-4.9,1.3-10.9,2-17.8,2l-42.7,0c-7,0-12.9-0.7-17.8-2   c-4.8-1.3-8.9-3.4-12-6.3c-3.1-2.9-5.3-6.6-6.8-11.3c-1.4-4.7-2.1-10.3-2.1-16.9v-23.7c0-6.6,0.7-12.2,2.1-16.8   c1.4-4.6,3.6-8.3,6.8-11.2c3.1-2.9,7-5.1,12-6.4c4.8-1.3,10.8-2,17.8-2L1812.2,458L1812.2,458z M1752,516.6c0,3.6,0.3,6.6,0.9,9   c0.7,2.5,1.6,4.4,3,5.9c1.4,1.4,3.3,2.5,5.6,3c2.3,0.7,5.3,0.9,8.9,0.9l41,0c3.6,0,6.5-0.3,8.9-0.9c2.3-0.7,4.2-1.6,5.6-3   c1.4-1.4,2.3-3.4,3-5.9c0.7-2.5,0.9-5.5,0.9-9v-20.7c0-3.6-0.3-6.6-0.9-9c-0.7-2.5-1.6-4.4-3-5.9c-1.4-1.4-3.3-2.5-5.6-3   c-2.3-0.7-5.3-0.9-8.9-0.9l-41,0c-3.6,0-6.5,0.3-8.9,0.9c-2.3,0.7-4.2,1.6-5.6,3c-1.4,1.4-2.3,3.4-3,5.9c-0.7,2.5-0.9,5.5-0.9,9   L1752,516.6L1752,516.6z"></path>
	<path class="st1" d="M1906.3,458c2.2,0,4,0.1,5.5,0.3c1.4,0.1,2.7,0.5,3.9,1.2c1,0.7,2.2,1.4,3.1,2.5c1,1,2.2,2.5,3.5,4.2   l51.4,67.4c0.4,0.7,0.9,0.9,1.8,0.9l1.3,0c0.8,0,1-0.5,1-1.4v-72c0-2.1,1-3,3-3l14.5,0c2.1,0,3,1,3,3v79.3c0,5.6-1,9.4-3,11.5   c-2.1,2-5.2,3-9.4,3l-11.8,0c-2.1,0-3.9-0.1-5.3-0.3c-1.4-0.1-2.7-0.5-3.8-1c-1-0.5-2.2-1.3-3.3-2.5c-1-1-2.2-2.5-3.6-4.3   l-51.6-67.3c-0.5-0.7-1.2-0.9-1.8-0.9l-1.3,0c-0.8,0-1,0.5-1,1.4V552c0,2.1-1,3-3,3l-14.5,0c-2.1,0-3.1-1-3.1-3v-79.3   c0-5.6,1-9.4,3-11.5c2.1-2,5.2-3,9.4-3h12.1V458L1906.3,458z"></path>
</g>
</svg>
