<svg width="2060" height="595" viewBox="0 0 2060 595" fill="none" xmlns="http://www.w3.org/2000/svg">
<g clip-path="url(#clip0_1183_223)">
<path d="M1647.23 269.763H1560.34V16.4015H1647.23V269.735V269.763ZM1821.61 16.4289H1719.08L1647.23 128.282V143.096L1726.55 269.763H1829.07L1734.12 135.675L1821.61 16.4015V16.4289ZM873.831 16.4289V109.115H805.224V16.4015H718.336V269.735H805.224V175.734H873.831V269.735H960.718V16.4015H873.831V16.4289ZM1436.48 203.225C1402.2 203.225 1378.78 176.227 1378.78 143.096C1378.78 109.964 1402.2 82.9659 1436.48 82.9659C1461.37 82.9659 1479.21 96.1912 1484.03 102.462L1527.17 43.2628C1515.36 32.4197 1478.91 7.80373 1426.93 7.80373C1334.81 7.80373 1287.62 79.1051 1287.62 143.096C1287.62 207.086 1334.81 278.388 1426.93 278.388C1478.91 278.388 1515.33 253.799 1527.17 242.929L1484.03 183.73C1479.21 190 1461.37 203.225 1436.48 203.225ZM1195.03 269.817C1181.76 246.789 1157.4 238.383 1134.16 238.383C1110.93 238.383 1086.56 246.789 1073.29 269.817H979.577L1086.87 16.3741H1181.43L1288.75 269.79H1195.03V269.817ZM1167.28 182.552L1134.14 91.6459L1100.99 182.552C1100.99 182.552 1114.18 176.939 1133.17 176.939H1135.1C1154.1 176.939 1167.28 182.552 1167.28 182.552ZM2060 321.486H1827.09V387.695H1900.1V574.847H1986.99V387.695H2060V321.486ZM1529.29 387.695V321.486H1308.32V574.82H1395.21V574.738H1529.29V508.529H1395.21V476.794H1529.29V419.43H1395.21V387.695H1529.29ZM1719.28 415.049H1669.34C1661.74 415.049 1655.6 408.943 1655.6 401.385C1655.6 393.828 1661.74 387.722 1669.34 387.722H1791.82V321.514H1648.99C1604.28 321.514 1568.11 357.849 1568.71 402.426C1569.29 446.318 1606.07 481.23 1650.2 481.23H1700.14C1707.74 481.23 1713.88 487.336 1713.88 494.893C1713.88 502.451 1707.74 508.557 1700.14 508.557H1577.71V574.765H1720.46C1765.17 574.765 1801.35 538.43 1800.74 493.853C1800.16 449.96 1763.38 415.049 1719.25 415.049H1719.28ZM1175.07 321.486V467.128C1175.07 485.83 1159.82 500.999 1141.02 500.999C1122.21 500.999 1106.96 485.83 1106.96 467.128V321.486H1020.08V476.493C1020.08 542.811 1073.43 582.979 1140.11 583.472C1207.34 583.965 1261.99 544.728 1261.99 477.999V321.486H1175.1H1175.07ZM941.695 516.388L996.288 495.687L991.691 566.824C991.691 566.824 921.294 583.472 844.648 583.472C748.18 583.472 705.342 505.846 705.342 443.881C705.342 381.917 752.53 312.888 844.648 312.888C936.767 312.888 978.724 374.798 976.163 437.447C974.787 471.29 957.497 501.246 941.695 514.17V516.388ZM844.648 508.283C875.813 508.283 892.827 479.532 892.827 448.235C892.827 416.938 875.813 388.023 844.648 388.023C813.483 388.023 796.469 416.938 796.469 448.235C796.469 479.532 813.483 508.283 844.648 508.283ZM510.643 87.1553C564.797 141.015 598.274 215.355 598.274 297.527L584.316 583.007L299.151 595.027C216.531 595.027 141.784 561.731 87.6309 507.872C33.4776 454.013 0 379.672 0 297.5L12.0861 13.8824L299.123 0C381.744 0 456.49 33.2959 510.643 87.1553ZM422.654 178.473C391.545 147.532 348.541 128.337 301.05 128.337C206.041 128.364 129.037 204.978 129.037 299.417C129.037 346.65 148.337 389.42 179.446 420.361C210.556 451.302 253.56 470.496 301.05 470.496C396.032 470.496 473.036 393.91 473.064 299.417C473.064 252.184 453.764 209.414 422.654 178.473Z" fill="white"/>
</g>
<defs>
<clipPath id="clip0_1183_223">
<rect width="2060" height="595" fill="white"/>
</clipPath>
</defs>
</svg>
