<svg width="1721" height="512" viewBox="0 0 1721 512" fill="none" xmlns="http://www.w3.org/2000/svg">
<path d="M487.842 317.991H504.588V195.846H487.842V317.991Z" fill="black"/>
<path d="M595.327 319.91C614.166 319.91 631.958 312.233 643.994 299.146L633.005 287.978C623.934 298.448 610.328 304.381 595.85 304.381C568.987 304.381 548.752 283.79 548.752 256.918C548.752 230.046 568.813 209.282 595.327 209.282C609.805 209.282 623.934 215.389 633.179 226.208L644.343 214.691C632.656 201.604 614.689 193.926 595.327 193.926C559.567 193.926 531.658 221.671 531.658 256.918C531.658 292.166 559.567 319.91 595.327 319.91Z" fill="black"/>
<path d="M669.759 317.991H759.594V303.334H686.505V263.549H733.952V249.066H686.505V210.503H758.896V195.846H669.759V317.991Z" fill="black"/>
<path d="M785.589 317.991H839.665C864.958 317.991 881.529 304.381 881.529 283.267C881.529 269.831 872.807 259.361 859.027 254.475C870.016 249.415 876.645 239.992 876.645 227.778C876.645 208.409 861.12 195.846 837.397 195.846H785.589V317.991ZM802.335 248.194V210.154H836.35C850.828 210.154 860.074 217.483 860.074 229.174C860.074 240.865 850.828 248.194 836.35 248.194H802.335ZM802.335 303.683V261.63H838.269C854.317 261.63 864.609 270.005 864.609 282.743C864.609 295.481 854.317 303.683 838.269 303.683H802.335Z" fill="black"/>
<path d="M908.914 317.991H925.66V267.039H961.594L987.062 317.991H1005.55L978.34 264.771C993.865 259.885 1003.81 247.67 1003.81 231.617C1003.81 210.329 987.411 195.846 963.338 195.846H908.914V317.991ZM925.66 253.079V210.678H962.117C976.944 210.678 986.887 219.053 986.887 231.791C986.887 244.704 976.944 253.079 962.117 253.079H925.66Z" fill="black"/>
<path d="M1030.19 317.991H1120.03V303.334H1046.94V263.549H1094.39V249.066H1046.94V210.503H1119.33V195.846H1030.19V317.991Z" fill="black"/>
<path d="M1136.02 317.991H1153.47L1168.12 281.347H1223.59L1238.24 317.991H1256.39L1206.32 195.846H1186.44L1136.02 317.991ZM1173.7 267.388L1195.85 211.725L1218.18 267.388H1173.7Z" fill="black"/>
<path d="M1276.5 317.991H1293.25V259.885L1353.78 317.991H1376.8L1310.69 255.173L1375.06 195.846H1353.6L1293.25 252.905V195.846H1276.5V317.991Z" fill="black"/>
<path d="M1392.5 317.991H1482.34V303.334H1409.25V263.549H1456.7V249.066H1409.25V210.503H1481.64V195.846H1392.5V317.991Z" fill="black"/>
<path d="M1508.33 317.991H1525.08V267.039H1561.02L1586.48 317.991H1604.97L1577.76 264.771C1593.29 259.885 1603.23 247.67 1603.23 231.617C1603.23 210.329 1586.83 195.846 1562.76 195.846H1508.33V317.991ZM1525.08 253.079V210.678H1561.53C1576.36 210.678 1586.31 219.053 1586.31 231.791C1586.31 244.704 1576.36 253.079 1561.53 253.079H1525.08Z" fill="black"/>
<path fill-rule="evenodd" clip-rule="evenodd" d="M246.442 88.5649L190.754 120.793C190.124 121.158 189.614 121.678 189.262 122.289L249.091 156.913C251.796 158.478 253.822 160.911 254.902 163.745C255.28 163.73 255.659 163.727 256.037 163.735C256.883 161.167 258.644 158.952 261.05 157.56L321.612 122.511C321.01 121.467 320.139 120.579 319.062 119.955L264.821 88.5649C259.135 85.274 252.129 85.274 246.442 88.5649ZM237.569 167.417C238.617 168.023 239.462 168.886 240.045 169.9L206.881 189.094C206.45 189.296 206.024 189.517 205.606 189.756L187.704 199.95C187.166 200.256 186.673 200.624 186.234 201.042L183.071 202.873C177.385 206.165 173.881 212.247 173.881 218.828V284.56C172.835 284.534 171.793 284.25 170.855 283.708L119.155 253.788L116.309 252.14C110.622 248.849 107.119 242.768 107.119 236.186V180.009C107.119 173.426 110.622 167.345 116.309 164.054L164.844 135.965C170.53 132.674 177.537 132.674 183.223 135.965L237.569 167.417ZM190.537 215.837L209.053 205.122C213.176 203.318 217.944 203.559 221.893 205.845L240.789 216.781L223.932 226.537C218.245 229.828 214.743 235.91 214.743 242.491V262.579L195.192 251.265C191.645 249.212 189.305 245.618 188.814 241.603V218.828C188.814 217.594 189.471 216.454 190.537 215.837ZM188.814 292.176V264.746L214.743 279.751V309.176L190.537 295.168C189.471 294.551 188.814 293.411 188.814 292.176ZM223.932 331.795C223.725 331.675 223.521 331.552 223.32 331.425L189.756 312.001C189.088 313.105 188.718 314.389 188.718 315.725V378.392C188.718 384.974 192.22 391.055 197.907 394.346L246.442 422.435C252.129 425.726 259.135 425.726 264.821 422.435L313.356 394.346C319.042 391.055 322.546 384.974 322.546 378.392V315.725C322.546 314.389 322.175 313.105 321.506 312.001L287.767 331.527C287.619 331.617 287.469 331.707 287.318 331.795L271.094 341.184C270.998 341.24 270.901 341.293 270.803 341.344L264.821 344.806C259.135 348.097 252.129 348.097 246.442 344.806L240.556 341.399C240.42 341.332 240.287 341.26 240.156 341.184L223.932 331.795ZM175.918 300.606C176.225 301.202 176.564 301.783 176.932 302.342C174.989 304.785 173.881 307.851 173.881 311.076V379.396C172.869 379.371 171.861 379.095 170.953 378.57L116.309 346.946C110.622 343.656 107.119 337.573 107.119 330.991V268.668C107.119 267.224 107.519 265.836 108.24 264.642L167.677 299.04C170.208 300.505 173.118 301.027 175.918 300.606ZM337.381 311.076C337.381 307.851 336.275 304.785 334.33 302.342C334.694 301.79 335.029 301.22 335.332 300.631C338.102 301.056 340.983 300.543 343.489 299.093L403.023 264.64C403.741 265.829 404.138 267.211 404.138 268.649V330.991C404.138 337.573 400.636 343.656 394.949 346.946L340.565 378.42C339.579 378.991 338.483 379.289 337.381 379.315V311.076ZM340.357 283.734C339.435 284.268 338.41 284.548 337.381 284.574V218.828C337.381 212.247 333.879 206.165 328.192 202.873L271.057 169.807C271.538 168.97 272.237 168.257 273.102 167.757L328.035 135.965C333.721 132.674 340.727 132.674 346.414 135.965L394.949 164.054C400.636 167.345 404.138 173.426 404.138 180.009V236.186C404.138 242.768 400.636 248.849 394.949 252.14L340.357 283.734ZM320.725 295.168L296.507 309.183V279.761L322.448 264.747V292.176C322.448 293.411 321.791 294.551 320.725 295.168ZM322.448 218.828V239.884C321.883 245.014 318.919 249.618 314.399 252.233L296.507 262.588V242.491C296.507 235.91 293.005 229.828 287.318 226.537L270.461 216.781L288.87 206.127C293.122 203.666 298.265 203.423 302.693 205.4L320.725 215.837C321.791 216.454 322.448 217.594 322.448 218.828ZM255.625 208.195L281.573 193.178L257.354 179.163C256.288 178.545 254.974 178.545 253.908 179.163L229.684 193.181L255.625 208.195ZM257.354 331.843L276.57 320.722C279.759 318.287 281.672 314.48 281.672 310.398V288.346L264.822 298.097C259.136 301.388 252.13 301.388 246.443 298.097L229.578 288.336V310.398C229.578 314.462 231.474 318.256 234.64 320.692L253.908 331.843C254.974 332.459 256.288 332.459 257.354 331.843ZM238.767 235.122L255.625 225.366L272.482 235.122C278.168 238.413 281.672 244.495 281.672 251.077V271.174L264.822 280.926C259.136 284.217 252.13 284.217 246.443 280.926L229.578 271.165V251.077C229.578 244.495 233.081 238.413 238.767 235.122Z" fill="black"/>
</svg>
