<?xml version="1.0" encoding="UTF-8" standalone="no"?>
<!DOCTYPE svg PUBLIC "-//W3C//DTD SVG 1.1//EN" "http://www.w3.org/Graphics/SVG/1.1/DTD/svg11.dtd">
<svg width="100%" height="100%" viewBox="0 0 960 161" version="1.1" xmlns="http://www.w3.org/2000/svg" xmlns:xlink="http://www.w3.org/1999/xlink" xml:space="preserve" xmlns:serif="http://www.serif.com/" style="fill-rule:evenodd;clip-rule:evenodd;stroke-linejoin:round;stroke-miterlimit:2;">
    <g transform="matrix(1,0,0,1,5,8)">
        <clipPath id="_clip1">
            <path d="M150,16C150,7.169 142.831,0 134,0L16,0C7.169,0 0,7.169 0,16L0,134C0,142.831 7.169,150 16,150L134,150C142.831,150 150,142.831 150,134L150,16Z"/>
        </clipPath>
        <g clip-path="url(#_clip1)">
            <path d="M155.979,13.426C155.979,1.6 146.369,-8 134.531,-8L16.448,-8C4.61,-8 -5,1.6 -5,13.426L-5,131.387C-5,143.212 4.61,152.812 16.448,152.812L134.531,152.812C146.369,152.812 155.979,143.212 155.979,131.387L155.979,13.426Z" style="fill:url(#_Linear2);"/>
            <path d="M44.298,115.115C50.075,115.115 54.757,110.433 54.757,104.657C54.757,98.881 50.075,94.198 44.298,94.198C38.522,94.198 33.84,98.881 33.84,104.657C33.84,110.433 38.522,115.115 44.298,115.115Z" style="fill:white;fill-rule:nonzero;"/>
            <path d="M73.478,115.115C79.254,115.115 83.937,110.433 83.937,104.657C83.937,98.881 79.254,94.198 73.478,94.198C67.702,94.198 63.02,98.881 63.02,104.657C63.02,110.433 67.702,115.115 73.478,115.115Z" style="fill:white;fill-rule:nonzero;"/>
            <path d="M102.088,115.115C107.864,115.115 112.546,110.433 112.546,104.657C112.546,98.881 107.864,94.198 102.088,94.198C96.312,94.198 91.629,98.881 91.629,104.657C91.629,110.433 96.312,115.115 102.088,115.115Z" style="fill:white;fill-rule:nonzero;"/>
            <path d="M102.088,85.402C107.864,85.402 112.546,80.72 112.546,74.944C112.546,69.168 107.864,64.485 102.088,64.485C96.312,64.485 91.629,69.168 91.629,74.944C91.629,80.72 96.312,85.402 102.088,85.402Z" style="fill:white;fill-rule:nonzero;"/>
            <path d="M102.088,55.072C107.864,55.072 112.546,50.39 112.546,44.614C112.546,38.838 107.864,34.155 102.088,34.155C96.312,34.155 91.629,38.838 91.629,44.614C91.629,50.39 96.312,55.072 102.088,55.072Z" style="fill:white;fill-rule:nonzero;"/>
            <path d="M73.478,85.402C79.254,85.402 83.937,80.72 83.937,74.944C83.937,69.168 79.254,64.485 73.478,64.485C67.702,64.485 63.02,69.168 63.02,74.944C63.02,80.72 67.702,85.402 73.478,85.402Z" style="fill:white;fill-rule:nonzero;"/>
        </g>
    </g>
    <g transform="matrix(1,0,0,1,5,8)">
        <path d="M281.261,64.073L296.181,64.073C295.616,59.589 294.26,55.739 292.112,52.523C289.964,49.209 287.195,46.48 283.804,44.335C280.526,42.191 276.683,40.631 272.274,39.657C267.979,38.584 263.345,38.048 258.371,38.048C251.476,38.048 245.428,39.121 240.229,41.265C235.029,43.312 230.677,46.187 227.173,49.891C223.782,53.498 221.239,57.786 219.543,62.757C217.848,67.631 217,72.894 217,78.548C217,84.201 217.848,89.416 219.543,94.192C221.352,98.87 223.952,102.915 227.343,106.327C230.847,109.738 235.142,112.37 240.229,114.222C245.428,116.074 251.363,117 258.032,117C269.222,117 278.039,114.466 284.482,109.397C291.038,104.329 295.107,97.116 296.69,87.759L281.939,87.759C281.035,93.607 278.548,98.139 274.478,101.356C270.522,104.572 264.984,106.181 257.862,106.181C253.341,106.181 249.441,105.401 246.163,103.841C242.885,102.282 240.229,100.235 238.194,97.701C236.159,95.069 234.634,92.096 233.616,88.782C232.712,85.468 232.26,82.057 232.26,78.548C232.26,74.746 232.712,71.091 233.616,67.582C234.52,63.976 235.99,60.808 238.025,58.079C240.172,55.349 242.998,53.156 246.502,51.499C250.006,49.842 254.358,49.014 259.558,49.014C265.662,49.014 270.522,50.33 274.139,52.961C277.757,55.593 280.13,59.297 281.261,64.073Z" style="fill:white;fill-rule:nonzero;"/>
    </g>
    <g transform="matrix(1,0,0,1,5,8)">
        <path d="M317.394,77.67C317.394,73.089 318.072,69.044 319.429,65.535C320.898,61.929 322.876,58.907 325.363,56.47C327.85,54.034 330.732,52.182 334.01,50.914C337.401,49.647 340.962,49.014 344.692,49.014C348.422,49.014 351.926,49.647 355.204,50.914C358.595,52.182 361.534,54.034 364.021,56.47C366.508,58.907 368.429,61.929 369.786,65.535C371.255,69.044 371.99,73.089 371.99,77.67C371.99,82.251 371.255,86.345 369.786,89.952C368.429,93.461 366.508,96.434 364.021,98.87C361.534,101.21 358.595,103.013 355.204,104.28C351.926,105.547 348.422,106.181 344.692,106.181C340.962,106.181 337.401,105.547 334.01,104.28C330.732,103.013 327.85,101.21 325.363,98.87C322.876,96.434 320.898,93.461 319.429,89.952C318.072,86.345 317.394,82.251 317.394,77.67ZM302.134,77.67C302.134,83.226 303.038,88.392 304.847,93.168C306.656,97.944 309.368,102.136 312.986,105.742C316.603,109.251 321.068,112.029 326.38,114.076C331.693,116.025 337.797,117 344.692,117C351.7,117 357.804,116.025 363.004,114.076C368.316,112.029 372.781,109.251 376.398,105.742C380.016,102.136 382.728,97.944 384.537,93.168C386.346,88.392 387.25,83.226 387.25,77.67C387.25,72.115 386.346,66.949 384.537,62.172C382.728,57.299 380.016,53.108 376.398,49.599C372.781,45.992 368.316,43.166 363.004,41.119C357.804,39.072 351.7,38.048 344.692,38.048C337.797,38.048 331.693,39.072 326.38,41.119C321.068,43.166 316.603,45.992 312.986,49.599C309.368,53.108 306.656,57.299 304.847,62.172C303.038,66.949 302.134,72.115 302.134,77.67Z" style="fill:white;fill-rule:nonzero;"/>
    </g>
    <g transform="matrix(1,0,0,1,5,8)">
        <path d="M398.308,11L398.308,115.392L412.72,115.392L412.72,72.699C412.72,69.288 413.229,66.169 414.246,63.342C415.376,60.418 417.015,57.884 419.163,55.739C421.311,53.595 423.967,51.938 427.132,50.768C430.41,49.599 434.253,49.014 438.661,49.014C444.2,49.014 448.552,50.378 451.717,53.108C454.882,55.837 456.465,59.541 456.465,64.219L456.465,115.392L470.877,115.392L470.877,65.681C470.877,61.588 470.368,57.884 469.351,54.57C468.446,51.158 466.807,48.234 464.434,45.797C462.06,43.361 458.951,41.46 455.108,40.095C451.265,38.731 446.461,38.048 440.696,38.048C438.096,38.048 435.383,38.292 432.558,38.779C429.845,39.267 427.188,40.046 424.589,41.119C422.102,42.093 419.841,43.409 417.806,45.066C415.772,46.626 414.189,48.575 413.059,50.914L412.72,50.914L412.72,11L398.308,11Z" style="fill:white;fill-rule:nonzero;"/>
    </g>
    <g transform="matrix(1,0,0,1,5,8)">
        <path d="M547.458,70.36L497.1,70.36C497.326,67.436 498.061,64.707 499.305,62.172C500.548,59.541 502.243,57.25 504.391,55.301C506.539,53.351 509.082,51.841 512.021,50.768C515.073,49.599 518.464,49.014 522.194,49.014C525.811,49.014 529.089,49.599 532.028,50.768C535.08,51.841 537.68,53.351 539.828,55.301C542.088,57.153 543.84,59.395 545.084,62.026C546.44,64.658 547.232,67.436 547.458,70.36ZM561.361,91.414L547.118,91.414C545.875,96.385 543.275,100.089 539.319,102.526C535.476,104.962 530.502,106.181 524.398,106.181C519.651,106.181 515.525,105.498 512.021,104.134C508.517,102.769 505.635,100.966 503.374,98.724C501.113,96.385 499.474,93.753 498.457,90.829C497.439,87.807 496.987,84.64 497.1,81.326L562.717,81.326C562.943,76.744 562.435,71.92 561.191,66.851C560.061,61.783 557.913,57.104 554.748,52.815C551.696,48.526 547.571,45.018 542.371,42.288C537.284,39.462 530.841,38.048 523.042,38.048C517.051,38.048 511.512,39.023 506.426,40.972C501.452,42.922 497.1,45.651 493.37,49.16C489.753,52.669 486.927,56.812 484.893,61.588C482.858,66.364 481.841,71.627 481.841,77.378C482.067,83.129 483.027,88.441 484.723,93.315C486.532,98.188 489.188,102.379 492.692,105.888C496.196,109.397 500.491,112.126 505.578,114.076C510.778,116.025 516.882,117 523.89,117C533.837,117 542.088,114.856 548.645,110.567C555.201,106.278 559.439,99.894 561.361,91.414Z" style="fill:white;fill-rule:nonzero;"/>
    </g>
    <g transform="matrix(1,0,0,1,5,8)">
        <path d="M571.214,39.803L571.214,115.392L585.626,115.392L585.626,81.764C585.626,76.891 586.191,72.602 587.321,68.898C588.451,65.097 590.26,61.88 592.747,59.248C595.234,56.617 598.512,54.618 602.581,53.254C606.65,51.889 611.567,51.207 617.332,51.207L617.332,38.048C609.533,37.853 603.09,39.218 598.003,42.142C592.916,45.066 588.621,49.599 585.117,55.739L584.778,55.739L584.778,39.803L571.214,39.803Z" style="fill:white;fill-rule:nonzero;"/>
    </g>
    <g transform="matrix(1,0,0,1,5,8)">
        <path d="M680.14,70.36L629.782,70.36C630.008,67.436 630.743,64.707 631.986,62.172C633.23,59.541 634.925,57.25 637.073,55.301C639.221,53.351 641.764,51.841 644.703,50.768C647.755,49.599 651.146,49.014 654.876,49.014C658.493,49.014 661.771,49.599 664.71,50.768C667.762,51.841 670.362,53.351 672.51,55.301C674.77,57.153 676.522,59.395 677.766,62.026C679.122,64.658 679.913,67.436 680.14,70.36ZM694.043,91.414L679.8,91.414C678.557,96.385 675.957,100.089 672.001,102.526C668.158,104.962 663.184,106.181 657.08,106.181C652.333,106.181 648.207,105.498 644.703,104.134C641.199,102.769 638.316,100.966 636.056,98.724C633.795,96.385 632.156,93.753 631.139,90.829C630.121,87.807 629.669,84.64 629.782,81.326L695.399,81.326C695.625,76.744 695.117,71.92 693.873,66.851C692.743,61.783 690.595,57.104 687.43,52.815C684.378,48.526 680.253,45.018 675.053,42.288C669.966,39.462 663.523,38.048 655.724,38.048C649.733,38.048 644.194,39.023 639.108,40.972C634.134,42.922 629.782,45.651 626.052,49.16C622.435,52.669 619.609,56.812 617.574,61.588C615.54,66.364 614.522,71.627 614.522,77.378C614.749,83.129 615.709,88.441 617.405,93.315C619.213,98.188 621.87,102.379 625.374,105.888C628.878,109.397 633.173,112.126 638.26,114.076C643.46,116.025 649.563,117 656.572,117C666.519,117 674.77,114.856 681.326,110.567C687.882,106.278 692.121,99.894 694.043,91.414Z" style="fill:white;fill-rule:nonzero;"/>
    </g>
    <g transform="matrix(1,0,0,1,5,8)">
        <path d="M704.404,39.803L704.404,115.392L718.816,115.392L718.816,72.699C718.816,69.288 719.325,66.169 720.342,63.342C721.472,60.418 723.111,57.884 725.259,55.739C727.407,53.595 730.063,51.938 733.228,50.768C736.506,49.599 740.349,49.014 744.758,49.014C750.297,49.014 754.648,50.378 757.813,53.108C760.978,55.837 762.561,59.541 762.561,64.219L762.561,115.392L776.973,115.392L776.973,65.681C776.973,61.588 776.464,57.884 775.447,54.57C774.543,51.158 772.904,48.234 770.53,45.797C768.156,43.361 765.048,41.46 761.204,40.095C757.361,38.731 752.557,38.048 746.792,38.048C733.793,38.048 724.298,42.629 718.307,51.792L717.968,51.792L717.968,39.803L704.404,39.803Z" style="fill:white;fill-rule:nonzero;"/>
    </g>
    <g transform="matrix(1,0,0,1,5,8)">
        <path d="M852.197,64.073L867.118,64.073C866.553,59.589 865.197,55.739 863.049,52.523C860.901,49.209 858.132,46.48 854.741,44.335C851.463,42.191 847.62,40.631 843.211,39.657C838.916,38.584 834.281,38.048 829.308,38.048C822.413,38.048 816.365,39.121 811.166,41.265C805.966,43.312 801.614,46.187 798.11,49.891C794.719,53.498 792.176,57.786 790.48,62.757C788.785,67.631 787.937,72.894 787.937,78.548C787.937,84.201 788.785,89.416 790.48,94.192C792.289,98.87 794.889,102.915 798.28,106.327C801.784,109.738 806.079,112.37 811.166,114.222C816.365,116.074 822.3,117 828.969,117C840.159,117 848.976,114.466 855.419,109.397C861.975,104.329 866.044,97.116 867.627,87.759L852.876,87.759C851.971,93.607 849.485,98.139 845.415,101.356C841.459,104.572 835.92,106.181 828.799,106.181C824.278,106.181 820.378,105.401 817.1,103.841C813.822,102.282 811.166,100.235 809.131,97.701C807.096,95.069 805.57,92.096 804.553,88.782C803.649,85.468 803.197,82.057 803.197,78.548C803.197,74.746 803.649,71.091 804.553,67.582C805.457,63.976 806.927,60.808 808.961,58.079C811.109,55.349 813.935,53.156 817.439,51.499C820.943,49.842 825.295,49.014 830.495,49.014C836.599,49.014 841.459,50.33 845.076,52.961C848.693,55.593 851.067,59.297 852.197,64.073Z" style="fill:white;fill-rule:nonzero;"/>
    </g>
    <g transform="matrix(1,0,0,1,5,8)">
        <path d="M938.688,70.36L888.331,70.36C888.557,67.436 889.292,64.707 890.535,62.172C891.778,59.541 893.474,57.25 895.622,55.301C897.769,53.351 900.313,51.841 903.252,50.768C906.303,49.599 909.695,49.014 913.425,49.014C917.042,49.014 920.32,49.599 923.259,50.768C926.311,51.841 928.911,53.351 931.058,55.301C933.319,57.153 935.071,59.395 936.314,62.026C937.671,64.658 938.462,67.436 938.688,70.36ZM952.591,91.414L938.349,91.414C937.106,96.385 934.506,100.089 930.549,102.526C926.706,104.962 921.733,106.181 915.629,106.181C910.881,106.181 906.756,105.498 903.252,104.134C899.747,102.769 896.865,100.966 894.604,98.724C892.344,96.385 890.705,93.753 889.687,90.829C888.67,87.807 888.218,84.64 888.331,81.326L953.948,81.326C954.174,76.744 953.665,71.92 952.422,66.851C951.292,61.783 949.144,57.104 945.979,52.815C942.927,48.526 938.801,45.018 933.602,42.288C928.515,39.462 922.072,38.048 914.272,38.048C908.281,38.048 902.743,39.023 897.656,40.972C892.683,42.922 888.331,45.651 884.601,49.16C880.984,52.669 878.158,56.812 876.123,61.588C874.088,66.364 873.071,71.627 873.071,77.378C873.297,83.129 874.258,88.441 875.953,93.315C877.762,98.188 880.418,102.379 883.922,105.888C887.427,109.397 891.722,112.126 896.808,114.076C902.008,116.025 908.112,117 915.12,117C925.067,117 933.319,114.856 939.875,110.567C946.431,106.278 950.67,99.894 952.591,91.414Z" style="fill:white;fill-rule:nonzero;"/>
    </g>
    <defs>
        <linearGradient id="_Linear2" x1="0" y1="0" x2="1" y2="0" gradientUnits="userSpaceOnUse" gradientTransform="matrix(134,155.5,-155.5,134,-44.5,-55)"><stop offset="0" style="stop-color:rgb(52,163,255);stop-opacity:1"/><stop offset="1" style="stop-color:rgb(147,33,255);stop-opacity:1"/></linearGradient>
    </defs>
</svg>
