<?xml version="1.0" encoding="UTF-8"?><svg id="Layer_2" xmlns="http://www.w3.org/2000/svg" viewBox="0 0 800 275.72"><defs><style>.cls-1{fill:#f05368;}.cls-2{fill:#fff;}.cls-3{fill:#981c20;}.cls-4{fill:#e41e2d;}</style></defs><g id="Layer_1-2"><path class="cls-4" d="m407.5,0l17.46,67.36-17.46,30.16V0Z"/><path class="cls-1" d="m407.5,97.52l-17.46-30.16L407.5,0v97.52Z"/><path class="cls-4" d="m323.05,48.76l67.06,18.55,17.39,30.2-84.45-48.76Z"/><path class="cls-1" d="m407.5,97.52l-34.85.04-49.6-48.8,84.45,48.76Z"/><path class="cls-4" d="m323.05,146.28l49.6-48.8,34.85.04-84.45,48.76Z"/><path class="cls-3" d="m407.5,97.52l-17.39,30.2-67.06,18.55,84.45-48.76Z"/><path class="cls-4" d="m407.5,195.04l-17.46-67.36,17.46-30.16v97.52Z"/><path class="cls-3" d="m407.5,97.52l17.46,30.16-17.46,67.36v-97.52Z"/><path class="cls-4" d="m491.96,146.28l-67.06-18.55-17.39-30.2,84.45,48.76Z"/><path class="cls-1" d="m407.5,97.52l34.85-.04,49.6,48.8-84.45-48.76Z"/><path class="cls-3" d="m491.96,48.76l-49.6,48.8-34.85-.04,84.45-48.76Z"/><path class="cls-1" d="m407.5,97.52l17.39-30.2,67.06-18.55-84.45,48.76Z"/><path class="cls-3" d="m407.5,275.72v-60.49c6.69-3.94,73.67-43.55,73.67-43.55l-73.67,104.04Z"/><path class="cls-4" d="m407.5,275.72v-60.49c-6.69-3.94-73.67-43.55-73.67-43.55l73.67,104.04Z"/><polygon class="cls-1" points="407.5 205.6 407.5 215.23 481.18 171.68 407.5 205.6"/><polygon class="cls-3" points="407.5 205.6 407.5 215.23 333.83 171.68 407.5 205.6"/><path class="cls-2" d="m0,233.74V48.27l82.8-.41v30.6h-48.02v45.62h42.13v30.6h-42.13v48.04h53.83v30.6l-88.61.41Z"/><path class="cls-2" d="m126.27,233.33V78.46h-32.11v-30.6h93.9v30.6h-27.01v154.87h-34.78Z"/><path class="cls-2" d="m199.31,233.33V47.85h34.78v75.81h36.48V47.85h34.78v185.47h-34.78v-79.06h-36.48v79.06h-34.78Z"/><path class="cls-2" d="m561.47,236.06c-17.97,0-30.92-3.6-38.86-10.8-7.94-7.2-12.1-19.17-12.49-35.9-.16-8.67-.27-17-.35-24.98-.08-7.98-.12-15.86-.12-23.64s.04-15.7.12-23.76c.08-8.05.19-16.46.35-25.21.23-16.03,4.47-27.75,12.72-35.14,8.25-7.4,21.12-11.09,38.63-11.09s29.72,3.8,37.82,11.39c8.09,7.59,12.37,19.29,12.84,35.09.08,2.56.12,5.33.12,8.31s-.04,5.96-.12,8.95c-.08,2.98-.16,5.75-.23,8.31h-34.85c.08-2.86.15-5.87.23-9,.08-3.14.12-6.27.12-9.41s-.04-6.14-.12-9c-.08-5.81-1.36-9.97-3.83-12.49-2.48-2.52-6.47-3.78-11.97-3.78s-9.78,1.26-12.37,3.78c-2.6,2.52-3.97,6.68-4.12,12.49-.23,8.52-.41,17-.52,25.44-.12,8.44-.17,16.85-.17,25.21s.06,16.73.17,25.09c.12,8.36.29,16.81.52,25.33.15,5.89,1.53,10.11,4.12,12.66,2.59,2.56,6.72,3.83,12.37,3.83s9.99-1.28,12.55-3.83c2.56-2.56,3.95-6.78,4.18-12.66.15-3.33.25-6.39.29-9.18.04-2.79.04-5.61,0-8.48-.04-2.86-.14-6.04-.29-9.53h34.85c.15,3.72.23,7.94.23,12.66s-.08,8.95-.23,12.66c-.46,16.73-4.67,28.7-12.61,35.9-7.94,7.2-20.93,10.8-38.98,10.8Z"/><path class="cls-2" d="m632.28,233.74V47.85h34.85v75.98h37.67V47.85h34.85v185.88h-34.85v-79.23h-37.67v79.23h-34.85Z"/><path class="cls-2" d="m765.15,233.74V47.86h34.85v185.88h-34.85Z"/></g></svg>